<svg xmlns="http://www.w3.org/2000/svg" width="805" height="600"><rect width="805" height="600" x="0" y="0" fill="#fdfdfd" id="background"/><g transform="translate(50,50)" id="visualization"><g id="axis"><g transform="translate(0,500)" fill="none" font-size="10" font-family="sans-serif" text-anchor="middle"><path class="domain" stroke="currentColor" d="M0.5,6V0.5H705.5V6"/><g class="tick" opacity="1" transform="translate(0.5,0)"><line stroke="currentColor" y2="6"/><text fill="currentColor" y="9" dy="0.71em">0</text></g><g class="tick" opacity="1" transform="translate(54.5,0)"><line stroke="currentColor" y2="6"/><text fill="currentColor" y="9" dy="0.71em">5,000</text></g><g class="tick" opacity="1" transform="translate(108.5,0)"><line stroke="currentColor" y2="6"/><text fill="currentColor" y="9" dy="0.71em">10,000</text></g><g class="tick" opacity="1" transform="translate(163.5,0)"><line stroke="currentColor" y2="6"/><text fill="currentColor" y="9" dy="0.71em">15,000</text></g><g class="tick" opacity="1" transform="translate(217.5,0)"><line stroke="currentColor" y2="6"/><text fill="currentColor" y="9" dy="0.71em">20,000</text></g><g class="tick" opacity="1" transform="translate(271.5,0)"><line stroke="currentColor" y2="6"/><text fill="currentColor" y="9" dy="0.71em">25,000</text></g><g class="tick" opacity="1" transform="translate(325.5,0)"><line stroke="currentColor" y2="6"/><text fill="currentColor" y="9" dy="0.71em">30,000</text></g><g class="tick" opacity="1" transform="translate(380.5,0)"><line stroke="currentColor" y2="6"/><text fill="currentColor" y="9" dy="0.71em">35,000</text></g><g class="tick" opacity="1" transform="translate(434.5,0)"><line stroke="currentColor" y2="6"/><text fill="currentColor" y="9" dy="0.71em">40,000</text></g><g class="tick" opacity="1" transform="translate(488.5,0)"><line stroke="currentColor" y2="6"/><text fill="currentColor" y="9" dy="0.71em">45,000</text></g><g class="tick" opacity="1" transform="translate(542.5,0)"><line stroke="currentColor" y2="6"/><text fill="currentColor" y="9" dy="0.71em">50,000</text></g><g class="tick" opacity="1" transform="translate(597.5,0)"><line stroke="currentColor" y2="6"/><text fill="currentColor" y="9" dy="0.71em">55,000</text></g><g class="tick" opacity="1" transform="translate(651.5,0)"><line stroke="currentColor" y2="6"/><text fill="currentColor" y="9" dy="0.71em">60,000</text></g><g class="tick" opacity="1" transform="translate(705.5,0)"><line stroke="currentColor" y2="6"/><text fill="currentColor" y="9" dy="0.71em">65,000</text></g><text x="705" dy="-5" text-anchor="end" style="font-family: Arial, sans-serif; font-size: 12px; fill: rgb(123, 123, 123); font-weight: bold;">discounted_price</text></g><g fill="none" font-size="10" font-family="sans-serif" text-anchor="end"><path class="domain" stroke="currentColor" d="M-6,500.5H0.5V0.5H-6"/><g class="tick" opacity="1" transform="translate(0,500.5)"><line stroke="currentColor" x2="-6"/><text fill="currentColor" x="-9" dy="0.32em">0</text></g><g class="tick" opacity="1" transform="translate(0,438.5)"><line stroke="currentColor" x2="-6"/><text fill="currentColor" x="-9" dy="0.32em">10,000</text></g><g class="tick" opacity="1" transform="translate(0,375.5)"><line stroke="currentColor" x2="-6"/><text fill="currentColor" x="-9" dy="0.32em">20,000</text></g><g class="tick" opacity="1" transform="translate(0,313.5)"><line stroke="currentColor" x2="-6"/><text fill="currentColor" x="-9" dy="0.32em">30,000</text></g><g class="tick" opacity="1" transform="translate(0,250.5)"><line stroke="currentColor" x2="-6"/><text fill="currentColor" x="-9" dy="0.32em">40,000</text></g><g class="tick" opacity="1" transform="translate(0,188.5)"><line stroke="currentColor" x2="-6"/><text fill="currentColor" x="-9" dy="0.32em">50,000</text></g><g class="tick" opacity="1" transform="translate(0,125.5)"><line stroke="currentColor" x2="-6"/><text fill="currentColor" x="-9" dy="0.32em">60,000</text></g><g class="tick" opacity="1" transform="translate(0,63.5)"><line stroke="currentColor" x2="-6"/><text fill="currentColor" x="-9" dy="0.32em">70,000</text></g><g class="tick" opacity="1" transform="translate(0,0.5)"><line stroke="currentColor" x2="-6"/><text fill="currentColor" x="-9" dy="0.32em">80,000</text></g><text x="4" text-anchor="start" dominant-baseline="hanging" style="font-family: Arial, sans-serif; font-size: 12px; fill: rgb(123, 123, 123); font-weight: bold;">actual_price</text></g></g><g id="viz"><g><path d="m0,-4l3.4641016151377544,1.9999999999999996l4.440892098500626e-16,3.9999999999999996l-3.4641016151377544,2.000000000000001l-3.464101615137754,-1.9999999999999982l-2.6645352591003757e-15,-3.999999999999999z" transform="translate(6.928203230275509,492)" fill="rgb(148, 78, 102)" stroke="white"/></g><g><path d="m0,-4l3.4641016151377544,1.9999999999999996l4.440892098500626e-16,3.9999999999999996l-3.4641016151377544,2.000000000000001l-3.464101615137754,-1.9999999999999982l-2.6645352591003757e-15,-3.999999999999999z" transform="translate(3.4641016151377544,498)" fill="rgb(236, 16, 16)" stroke="white"/></g><g><path d="m0,-4l3.4641016151377544,1.9999999999999996l4.440892098500626e-16,3.9999999999999996l-3.4641016151377544,2.000000000000001l-3.464101615137754,-1.9999999999999982l-2.6645352591003757e-15,-3.999999999999999z" transform="translate(3.4641016151377544,486)" fill="rgb(44, 150, 203)" stroke="white"/></g><g><path d="m0,-4l3.4641016151377544,1.9999999999999996l4.440892098500626e-16,3.9999999999999996l-3.4641016151377544,2.000000000000001l-3.464101615137754,-1.9999999999999982l-2.6645352591003757e-15,-3.999999999999999z" transform="translate(148.95636945092343,342)" fill="rgb(29, 160, 218)" stroke="white"/></g><g><path d="m0,-4l3.4641016151377544,1.9999999999999996l4.440892098500626e-16,3.9999999999999996l-3.4641016151377544,2.000000000000001l-3.464101615137754,-1.9999999999999982l-2.6645352591003757e-15,-3.999999999999999z" transform="translate(10.392304845413264,486)" fill="rgb(68, 133, 180)" stroke="white"/></g><g><path d="m0,-4l3.4641016151377544,1.9999999999999996l4.440892098500626e-16,3.9999999999999996l-3.4641016151377544,2.000000000000001l-3.464101615137754,-1.9999999999999982l-2.6645352591003757e-15,-3.999999999999999z" transform="translate(162.81277591147446,378)" fill="rgb(28, 161, 219)" stroke="white"/></g><g><path d="m0,-4l3.4641016151377544,1.9999999999999996l4.440892098500626e-16,3.9999999999999996l-3.4641016151377544,2.000000000000001l-3.464101615137754,-1.9999999999999982l-2.6645352591003757e-15,-3.999999999999999z" transform="translate(0,492)" fill="rgb(67, 134, 181)" stroke="white"/></g><g><path d="m0,-4l3.4641016151377544,1.9999999999999996l4.440892098500626e-16,3.9999999999999996l-3.4641016151377544,2.000000000000001l-3.464101615137754,-1.9999999999999982l-2.6645352591003757e-15,-3.999999999999999z" transform="translate(356.8024663591887,210)" fill="rgb(28, 161, 219)" stroke="white"/></g><g><path d="m0,-4l3.4641016151377544,1.9999999999999996l4.440892098500626e-16,3.9999999999999996l-3.4641016151377544,2.000000000000001l-3.464101615137754,-1.9999999999999982l-2.6645352591003757e-15,-3.999999999999999z" transform="translate(218.23840175367852,282)" fill="rgb(28, 161, 219)" stroke="white"/></g><g><path d="m0,-4l3.4641016151377544,1.9999999999999996l4.440892098500626e-16,3.9999999999999996l-3.4641016151377544,2.000000000000001l-3.464101615137754,-1.9999999999999982l-2.6645352591003757e-15,-3.999999999999999z" transform="translate(13.856406460551018,492)" fill="rgb(47, 148, 200)" stroke="white"/></g><g><path d="m0,-4l3.4641016151377544,1.9999999999999996l4.440892098500626e-16,3.9999999999999996l-3.4641016151377544,2.000000000000001l-3.464101615137754,-1.9999999999999982l-2.6645352591003757e-15,-3.999999999999999z" transform="translate(76.2102355330306,420)" fill="rgb(28, 161, 219)" stroke="white"/></g><g><path d="m0,-4l3.4641016151377544,1.9999999999999996l4.440892098500626e-16,3.9999999999999996l-3.4641016151377544,2.000000000000001l-3.464101615137754,-1.9999999999999982l-2.6645352591003757e-15,-3.999999999999999z" transform="translate(173.20508075688772,360)" fill="rgb(28, 161, 219)" stroke="white"/></g><g><path d="m0,-4l3.4641016151377544,1.9999999999999996l4.440892098500626e-16,3.9999999999999996l-3.4641016151377544,2.000000000000001l-3.464101615137754,-1.9999999999999982l-2.6645352591003757e-15,-3.999999999999999z" transform="translate(13.856406460551018,480)" fill="rgb(41, 152, 206)" stroke="white"/></g><g><path d="m0,-4l3.4641016151377544,1.9999999999999996l4.440892098500626e-16,3.9999999999999996l-3.4641016151377544,2.000000000000001l-3.464101615137754,-1.9999999999999982l-2.6645352591003757e-15,-3.999999999999999z" transform="translate(294.44863728670913,234)" fill="rgb(29, 161, 218)" stroke="white"/></g><g><path d="m0,-4l3.4641016151377544,1.9999999999999996l4.440892098500626e-16,3.9999999999999996l-3.4641016151377544,2.000000000000001l-3.464101615137754,-1.9999999999999982l-2.6645352591003757e-15,-3.999999999999999z" transform="translate(17.32050807568877,474)" fill="rgb(33, 158, 215)" stroke="white"/></g><g><path d="m0,-4l3.4641016151377544,1.9999999999999996l4.440892098500626e-16,3.9999999999999996l-3.4641016151377544,2.000000000000001l-3.464101615137754,-1.9999999999999982l-2.6645352591003757e-15,-3.999999999999999z" transform="translate(79.67433714816835,378)" fill="rgb(28, 161, 219)" stroke="white"/></g><g><path d="m0,-4l3.4641016151377544,1.9999999999999996l4.440892098500626e-16,3.9999999999999996l-3.4641016151377544,2.000000000000001l-3.464101615137754,-1.9999999999999982l-2.6645352591003757e-15,-3.999999999999999z" transform="translate(325.6255518229489,252)" fill="rgb(28, 161, 219)" stroke="white"/></g><g><path d="m0,-4l3.4641016151377544,1.9999999999999996l4.440892098500626e-16,3.9999999999999996l-3.4641016151377544,2.000000000000001l-3.464101615137754,-1.9999999999999982l-2.6645352591003757e-15,-3.999999999999999z" transform="translate(270.19992598074487,300)" fill="rgb(28, 161, 219)" stroke="white"/></g><g><path d="m0,-4l3.4641016151377544,1.9999999999999996l4.440892098500626e-16,3.9999999999999996l-3.4641016151377544,2.000000000000001l-3.464101615137754,-1.9999999999999982l-2.6645352591003757e-15,-3.999999999999999z" transform="translate(235.5589098293673,312)" fill="rgb(29, 161, 218)" stroke="white"/></g><g><path d="m0,-4l3.4641016151377544,1.9999999999999996l4.440892098500626e-16,3.9999999999999996l-3.4641016151377544,2.000000000000001l-3.464101615137754,-1.9999999999999982l-2.6645352591003757e-15,-3.999999999999999z" transform="translate(412.22809220139277,498)" fill="rgb(28, 161, 219)" stroke="white"/></g><g><path d="m0,-4l3.4641016151377544,1.9999999999999996l4.440892098500626e-16,3.9999999999999996l-3.4641016151377544,2.000000000000001l-3.464101615137754,-1.9999999999999982l-2.6645352591003757e-15,-3.999999999999999z" transform="translate(17.32050807568877,486)" fill="rgb(52, 145, 196)" stroke="white"/></g><g><path d="m0,-4l3.4641016151377544,1.9999999999999996l4.440892098500626e-16,3.9999999999999996l-3.4641016151377544,2.000000000000001l-3.464101615137754,-1.9999999999999982l-2.6645352591003757e-15,-3.999999999999999z" transform="translate(93.53074360871936,402)" fill="rgb(28, 161, 219)" stroke="white"/></g><g><path d="m0,-4l3.4641016151377544,1.9999999999999996l4.440892098500626e-16,3.9999999999999996l-3.4641016151377544,2.000000000000001l-3.464101615137754,-1.9999999999999982l-2.6645352591003757e-15,-3.999999999999999z" transform="translate(356.8024663591887,222)" fill="rgb(28, 161, 219)" stroke="white"/></g><g><path d="m0,-4l3.4641016151377544,1.9999999999999996l4.440892098500626e-16,3.9999999999999996l-3.4641016151377544,2.000000000000001l-3.464101615137754,-1.9999999999999982l-2.6645352591003757e-15,-3.999999999999999z" transform="translate(20.784609690826528,480)" fill="rgb(37, 155, 210)" stroke="white"/></g><g><path d="m0,-4l3.4641016151377544,1.9999999999999996l4.440892098500626e-16,3.9999999999999996l-3.4641016151377544,2.000000000000001l-3.464101615137754,-1.9999999999999982l-2.6645352591003757e-15,-3.999999999999999z" transform="translate(110.85125168440814,420)" fill="rgb(28, 161, 219)" stroke="white"/></g><g><path d="m0,-4l3.4641016151377544,1.9999999999999996l4.440892098500626e-16,3.9999999999999996l-3.4641016151377544,2.000000000000001l-3.464101615137754,-1.9999999999999982l-2.6645352591003757e-15,-3.999999999999999z" transform="translate(58.88972745734183,498)" fill="rgb(28, 161, 219)" stroke="white"/></g><g><path d="m0,-4l3.4641016151377544,1.9999999999999996l4.440892098500626e-16,3.9999999999999996l-3.4641016151377544,2.000000000000001l-3.464101615137754,-1.9999999999999982l-2.6645352591003757e-15,-3.999999999999999z" transform="translate(270.19992598074487,276)" fill="rgb(28, 161, 219)" stroke="white"/></g><g><path d="m0,-4l3.4641016151377544,1.9999999999999996l4.440892098500626e-16,3.9999999999999996l-3.4641016151377544,2.000000000000001l-3.464101615137754,-1.9999999999999982l-2.6645352591003757e-15,-3.999999999999999z" transform="translate(6.928203230275509,480)" fill="rgb(30, 159, 217)" stroke="white"/></g><g><path d="m0,-4l3.4641016151377544,1.9999999999999996l4.440892098500626e-16,3.9999999999999996l-3.4641016151377544,2.000000000000001l-3.464101615137754,-1.9999999999999982l-2.6645352591003757e-15,-3.999999999999999z" transform="translate(467.6537180435968,126)" fill="rgb(28, 161, 219)" stroke="white"/></g><g><path d="m0,-4l3.4641016151377544,1.9999999999999996l4.440892098500626e-16,3.9999999999999996l-3.4641016151377544,2.000000000000001l-3.464101615137754,-1.9999999999999982l-2.6645352591003757e-15,-3.999999999999999z" transform="translate(6.928203230275509,468)" fill="rgb(29, 161, 218)" stroke="white"/></g><g><path d="m0,-4l3.4641016151377544,1.9999999999999996l4.440892098500626e-16,3.9999999999999996l-3.4641016151377544,2.000000000000001l-3.464101615137754,-1.9999999999999982l-2.6645352591003757e-15,-3.999999999999999z" transform="translate(349.8742631289132,186)" fill="rgb(28, 161, 219)" stroke="white"/></g><g><path d="m0,-4l3.4641016151377544,1.9999999999999996l4.440892098500626e-16,3.9999999999999996l-3.4641016151377544,2.000000000000001l-3.464101615137754,-1.9999999999999982l-2.6645352591003757e-15,-3.999999999999999z" transform="translate(51.96152422706631,474)" fill="rgb(28, 161, 219)" stroke="white"/></g><g><path d="m0,-4l3.4641016151377544,1.9999999999999996l4.440892098500626e-16,3.9999999999999996l-3.4641016151377544,2.000000000000001l-3.464101615137754,-1.9999999999999982l-2.6645352591003757e-15,-3.999999999999999z" transform="translate(24.24871130596428,474)" fill="rgb(34, 157, 213)" stroke="white"/></g><g><path d="m0,-4l3.4641016151377544,1.9999999999999996l4.440892098500626e-16,3.9999999999999996l-3.4641016151377544,2.000000000000001l-3.464101615137754,-1.9999999999999982l-2.6645352591003757e-15,-3.999999999999999z" transform="translate(96.99484522385713,384)" fill="rgb(28, 161, 219)" stroke="white"/></g><g><path d="m0,-4l3.4641016151377544,1.9999999999999996l4.440892098500626e-16,3.9999999999999996l-3.4641016151377544,2.000000000000001l-3.464101615137754,-1.9999999999999982l-2.6645352591003757e-15,-3.999999999999999z" transform="translate(204.38199529312752,498)" fill="rgb(28, 161, 219)" stroke="white"/></g><g><path d="m0,-4l3.4641016151377544,1.9999999999999996l4.440892098500626e-16,3.9999999999999996l-3.4641016151377544,2.000000000000001l-3.464101615137754,-1.9999999999999982l-2.6645352591003757e-15,-3.999999999999999z" transform="translate(86.60254037844386,402)" fill="rgb(28, 161, 219)" stroke="white"/></g><g><path d="m0,-4l3.4641016151377544,1.9999999999999996l4.440892098500626e-16,3.9999999999999996l-3.4641016151377544,2.000000000000001l-3.464101615137754,-1.9999999999999982l-2.6645352591003757e-15,-3.999999999999999z" transform="translate(325.6255518229489,180)" fill="rgb(28, 161, 219)" stroke="white"/></g><g><path d="m0,-4l3.4641016151377544,1.9999999999999996l4.440892098500626e-16,3.9999999999999996l-3.4641016151377544,2.000000000000001l-3.464101615137754,-1.9999999999999982l-2.6645352591003757e-15,-3.999999999999999z" transform="translate(187.06148721743872,336)" fill="rgb(28, 161, 219)" stroke="white"/></g><g><path d="m0,-4l3.4641016151377544,1.9999999999999996l4.440892098500626e-16,3.9999999999999996l-3.4641016151377544,2.000000000000001l-3.464101615137754,-1.9999999999999982l-2.6645352591003757e-15,-3.999999999999999z" transform="translate(166.27687752661222,408)" fill="rgb(28, 161, 219)" stroke="white"/></g><g><path d="m0,-4l3.4641016151377544,1.9999999999999996l4.440892098500626e-16,3.9999999999999996l-3.4641016151377544,2.000000000000001l-3.464101615137754,-1.9999999999999982l-2.6645352591003757e-15,-3.999999999999999z" transform="translate(672.0357133367244,60)" fill="rgb(28, 161, 219)" stroke="white"/></g><g><path d="m0,-4l3.4641016151377544,1.9999999999999996l4.440892098500626e-16,3.9999999999999996l-3.4641016151377544,2.000000000000001l-3.464101615137754,-1.9999999999999982l-2.6645352591003757e-15,-3.999999999999999z" transform="translate(266.7358243656071,498)" fill="rgb(28, 161, 219)" stroke="white"/></g><g><path d="m0,-4l3.4641016151377544,1.9999999999999996l4.440892098500626e-16,3.9999999999999996l-3.4641016151377544,2.000000000000001l-3.464101615137754,-1.9999999999999982l-2.6645352591003757e-15,-3.999999999999999z" transform="translate(114.31535329954589,378)" fill="rgb(28, 161, 219)" stroke="white"/></g><g><path d="m0,-4l3.4641016151377544,1.9999999999999996l4.440892098500626e-16,3.9999999999999996l-3.4641016151377544,2.000000000000001l-3.464101615137754,-1.9999999999999982l-2.6645352591003757e-15,-3.999999999999999z" transform="translate(509.2229374252499,66)" fill="rgb(28, 161, 219)" stroke="white"/></g><g><path d="m0,-4l3.4641016151377544,1.9999999999999996l4.440892098500626e-16,3.9999999999999996l-3.4641016151377544,2.000000000000001l-3.464101615137754,-1.9999999999999982l-2.6645352591003757e-15,-3.999999999999999z" transform="translate(20.784609690826528,372)" fill="rgb(30, 159, 217)" stroke="white"/></g><g><path d="m0,-4l3.4641016151377544,1.9999999999999996l4.440892098500626e-16,3.9999999999999996l-3.4641016151377544,2.000000000000001l-3.464101615137754,-1.9999999999999982l-2.6645352591003757e-15,-3.999999999999999z" transform="translate(24.24871130596428,438)" fill="rgb(33, 157, 214)" stroke="white"/></g><g><path d="m0,-4l3.4641016151377544,1.9999999999999996l4.440892098500626e-16,3.9999999999999996l-3.4641016151377544,2.000000000000001l-3.464101615137754,-1.9999999999999982l-2.6645352591003757e-15,-3.999999999999999z" transform="translate(24.24871130596428,486)" fill="rgb(30, 159, 217)" stroke="white"/></g><g><path d="m0,-4l3.4641016151377544,1.9999999999999996l4.440892098500626e-16,3.9999999999999996l-3.4641016151377544,2.000000000000001l-3.464101615137754,-1.9999999999999982l-2.6645352591003757e-15,-3.999999999999999z" transform="translate(69.28203230275508,444)" fill="rgb(30, 159, 217)" stroke="white"/></g><g><path d="m0,-4l3.4641016151377544,1.9999999999999996l4.440892098500626e-16,3.9999999999999996l-3.4641016151377544,2.000000000000001l-3.464101615137754,-1.9999999999999982l-2.6645352591003757e-15,-3.999999999999999z" transform="translate(315.23324697753566,318)" fill="rgb(29, 161, 218)" stroke="white"/></g><g><path d="m0,-4l3.4641016151377544,1.9999999999999996l4.440892098500626e-16,3.9999999999999996l-3.4641016151377544,2.000000000000001l-3.464101615137754,-1.9999999999999982l-2.6645352591003757e-15,-3.999999999999999z" transform="translate(20.784609690826528,468)" fill="rgb(31, 159, 216)" stroke="white"/></g><g><path d="m0,-4l3.4641016151377544,1.9999999999999996l4.440892098500626e-16,3.9999999999999996l-3.4641016151377544,2.000000000000001l-3.464101615137754,-1.9999999999999982l-2.6645352591003757e-15,-3.999999999999999z" transform="translate(100.45894683899488,426)" fill="rgb(30, 159, 217)" stroke="white"/></g><g><path d="m0,-4l3.4641016151377544,1.9999999999999996l4.440892098500626e-16,3.9999999999999996l-3.4641016151377544,2.000000000000001l-3.464101615137754,-1.9999999999999982l-2.6645352591003757e-15,-3.999999999999999z" transform="translate(17.32050807568877,450)" fill="rgb(29, 160, 218)" stroke="white"/></g><g><path d="m0,-4l3.4641016151377544,1.9999999999999996l4.440892098500626e-16,3.9999999999999996l-3.4641016151377544,2.000000000000001l-3.464101615137754,-1.9999999999999982l-2.6645352591003757e-15,-3.999999999999999z" transform="translate(200.91789367798975,336)" fill="rgb(28, 161, 219)" stroke="white"/></g><g><path d="m0,-4l3.4641016151377544,1.9999999999999996l4.440892098500626e-16,3.9999999999999996l-3.4641016151377544,2.000000000000001l-3.464101615137754,-1.9999999999999982l-2.6645352591003757e-15,-3.999999999999999z" transform="translate(142.02816622064793,390)" fill="rgb(29, 160, 218)" stroke="white"/></g><g><path d="m0,-4l3.4641016151377544,1.9999999999999996l4.440892098500626e-16,3.9999999999999996l-3.4641016151377544,2.000000000000001l-3.464101615137754,-1.9999999999999982l-2.6645352591003757e-15,-3.999999999999999z" transform="translate(183.597385602301,342)" fill="rgb(29, 161, 218)" stroke="white"/></g><g><path d="m0,-4l3.4641016151377544,1.9999999999999996l4.440892098500626e-16,3.9999999999999996l-3.4641016151377544,2.000000000000001l-3.464101615137754,-1.9999999999999982l-2.6645352591003757e-15,-3.999999999999999z" transform="translate(180.13328398716322,372)" fill="rgb(28, 161, 219)" stroke="white"/></g><g><path d="m0,-4l3.4641016151377544,1.9999999999999996l4.440892098500626e-16,3.9999999999999996l-3.4641016151377544,2.000000000000001l-3.464101615137754,-1.9999999999999982l-2.6645352591003757e-15,-3.999999999999999z" transform="translate(90.06664199358161,432)" fill="rgb(28, 161, 219)" stroke="white"/></g><g><path d="m0,-4l3.4641016151377544,1.9999999999999996l4.440892098500626e-16,3.9999999999999996l-3.4641016151377544,2.000000000000001l-3.464101615137754,-1.9999999999999982l-2.6645352591003757e-15,-3.999999999999999z" transform="translate(41.569219381653056,396)" fill="rgb(29, 161, 218)" stroke="white"/></g><g><path d="m0,-4l3.4641016151377544,1.9999999999999996l4.440892098500626e-16,3.9999999999999996l-3.4641016151377544,2.000000000000001l-3.464101615137754,-1.9999999999999982l-2.6645352591003757e-15,-3.999999999999999z" transform="translate(31.17691453623979,462)" fill="rgb(30, 159, 217)" stroke="white"/></g><g><path d="m0,-4l3.4641016151377544,1.9999999999999996l4.440892098500626e-16,3.9999999999999996l-3.4641016151377544,2.000000000000001l-3.464101615137754,-1.9999999999999982l-2.6645352591003757e-15,-3.999999999999999z" transform="translate(166.27687752661222,384)" fill="rgb(29, 161, 218)" stroke="white"/></g><g><path d="m0,-4l3.4641016151377544,1.9999999999999996l4.440892098500626e-16,3.9999999999999996l-3.4641016151377544,2.000000000000001l-3.464101615137754,-1.9999999999999982l-2.6645352591003757e-15,-3.999999999999999z" transform="translate(142.02816622064793,402)" fill="rgb(28, 161, 219)" stroke="white"/></g><g><path d="m0,-4l3.4641016151377544,1.9999999999999996l4.440892098500626e-16,3.9999999999999996l-3.4641016151377544,2.000000000000001l-3.464101615137754,-1.9999999999999982l-2.6645352591003757e-15,-3.999999999999999z" transform="translate(218.23840175367852,342)" fill="rgb(28, 161, 219)" stroke="white"/></g><g><path d="m0,-4l3.4641016151377544,1.9999999999999996l4.440892098500626e-16,3.9999999999999996l-3.4641016151377544,2.000000000000001l-3.464101615137754,-1.9999999999999982l-2.6645352591003757e-15,-3.999999999999999z" transform="translate(315.23324697753566,282)" fill="rgb(28, 161, 219)" stroke="white"/></g><g><path d="m0,-4l3.4641016151377544,1.9999999999999996l4.440892098500626e-16,3.9999999999999996l-3.4641016151377544,2.000000000000001l-3.464101615137754,-1.9999999999999982l-2.6645352591003757e-15,-3.999999999999999z" transform="translate(10.392304845413264,474)" fill="rgb(30, 159, 217)" stroke="white"/></g><g><path d="m0,-4l3.4641016151377544,1.9999999999999996l4.440892098500626e-16,3.9999999999999996l-3.4641016151377544,2.000000000000001l-3.464101615137754,-1.9999999999999982l-2.6645352591003757e-15,-3.999999999999999z" transform="translate(148.95636945092343,378)" fill="rgb(30, 160, 217)" stroke="white"/></g><g><path d="m0,-4l3.4641016151377544,1.9999999999999996l4.440892098500626e-16,3.9999999999999996l-3.4641016151377544,2.000000000000001l-3.464101615137754,-1.9999999999999982l-2.6645352591003757e-15,-3.999999999999999z" transform="translate(152.4204710660612,372)" fill="rgb(29, 161, 218)" stroke="white"/></g><g><path d="m0,-4l3.4641016151377544,1.9999999999999996l4.440892098500626e-16,3.9999999999999996l-3.4641016151377544,2.000000000000001l-3.464101615137754,-1.9999999999999982l-2.6645352591003757e-15,-3.999999999999999z" transform="translate(45.033320996790806,438)" fill="rgb(29, 161, 218)" stroke="white"/></g><g><path d="m0,-4l3.4641016151377544,1.9999999999999996l4.440892098500626e-16,3.9999999999999996l-3.4641016151377544,2.000000000000001l-3.464101615137754,-1.9999999999999982l-2.6645352591003757e-15,-3.999999999999999z" transform="translate(367.194771204602,288)" fill="rgb(28, 161, 219)" stroke="white"/></g><g><path d="m0,-4l3.4641016151377544,1.9999999999999996l4.440892098500626e-16,3.9999999999999996l-3.4641016151377544,2.000000000000001l-3.464101615137754,-1.9999999999999982l-2.6645352591003757e-15,-3.999999999999999z" transform="translate(117.77945491468365,408)" fill="rgb(29, 161, 218)" stroke="white"/></g><g><path d="m0,-4l3.4641016151377544,1.9999999999999996l4.440892098500626e-16,3.9999999999999996l-3.4641016151377544,2.000000000000001l-3.464101615137754,-1.9999999999999982l-2.6645352591003757e-15,-3.999999999999999z" transform="translate(377.58707605001524,258)" fill="rgb(28, 161, 219)" stroke="white"/></g><g><path d="m0,-4l3.4641016151377544,1.9999999999999996l4.440892098500626e-16,3.9999999999999996l-3.4641016151377544,2.000000000000001l-3.464101615137754,-1.9999999999999982l-2.6645352591003757e-15,-3.999999999999999z" transform="translate(225.16660498395404,330)" fill="rgb(28, 161, 219)" stroke="white"/></g><g><path d="m0,-4l3.4641016151377544,1.9999999999999996l4.440892098500626e-16,3.9999999999999996l-3.4641016151377544,2.000000000000001l-3.464101615137754,-1.9999999999999982l-2.6645352591003757e-15,-3.999999999999999z" transform="translate(166.27687752661222,372)" fill="rgb(29, 161, 218)" stroke="white"/></g><g><path d="m0,-4l3.4641016151377544,1.9999999999999996l4.440892098500626e-16,3.9999999999999996l-3.4641016151377544,2.000000000000001l-3.464101615137754,-1.9999999999999982l-2.6645352591003757e-15,-3.999999999999999z" transform="translate(245.95121467478057,318)" fill="rgb(28, 161, 219)" stroke="white"/></g><g><path d="m0,-4l3.4641016151377544,1.9999999999999996l4.440892098500626e-16,3.9999999999999996l-3.4641016151377544,2.000000000000001l-3.464101615137754,-1.9999999999999982l-2.6645352591003757e-15,-3.999999999999999z" transform="translate(79.67433714816835,450)" fill="rgb(28, 161, 219)" stroke="white"/></g><g><path d="m0,-4l3.4641016151377544,1.9999999999999996l4.440892098500626e-16,3.9999999999999996l-3.4641016151377544,2.000000000000001l-3.464101615137754,-1.9999999999999982l-2.6645352591003757e-15,-3.999999999999999z" transform="translate(13.856406460551018,468)" fill="rgb(32, 158, 215)" stroke="white"/></g><g><path d="m0,-4l3.4641016151377544,1.9999999999999996l4.440892098500626e-16,3.9999999999999996l-3.4641016151377544,2.000000000000001l-3.464101615137754,-1.9999999999999982l-2.6645352591003757e-15,-3.999999999999999z" transform="translate(24.24871130596428,462)" fill="rgb(31, 159, 216)" stroke="white"/></g><g><path d="m0,-4l3.4641016151377544,1.9999999999999996l4.440892098500626e-16,3.9999999999999996l-3.4641016151377544,2.000000000000001l-3.464101615137754,-1.9999999999999982l-2.6645352591003757e-15,-3.999999999999999z" transform="translate(17.32050807568877,462)" fill="rgb(29, 160, 218)" stroke="white"/></g><g><path d="m0,-4l3.4641016151377544,1.9999999999999996l4.440892098500626e-16,3.9999999999999996l-3.4641016151377544,2.000000000000001l-3.464101615137754,-1.9999999999999982l-2.6645352591003757e-15,-3.999999999999999z" transform="translate(114.31535329954589,414)" fill="rgb(28, 161, 219)" stroke="white"/></g><g><path d="m0,-4l3.4641016151377544,1.9999999999999996l4.440892098500626e-16,3.9999999999999996l-3.4641016151377544,2.000000000000001l-3.464101615137754,-1.9999999999999982l-2.6645352591003757e-15,-3.999999999999999z" transform="translate(72.74613391789285,450)" fill="rgb(28, 161, 219)" stroke="white"/></g><g><path d="m0,-4l3.4641016151377544,1.9999999999999996l4.440892098500626e-16,3.9999999999999996l-3.4641016151377544,2.000000000000001l-3.464101615137754,-1.9999999999999982l-2.6645352591003757e-15,-3.999999999999999z" transform="translate(31.17691453623979,438)" fill="rgb(29, 161, 218)" stroke="white"/></g><g><path d="m0,-4l3.4641016151377544,1.9999999999999996l4.440892098500626e-16,3.9999999999999996l-3.4641016151377544,2.000000000000001l-3.464101615137754,-1.9999999999999982l-2.6645352591003757e-15,-3.999999999999999z" transform="translate(100.45894683899488,414)" fill="rgb(28, 161, 219)" stroke="white"/></g><g><path d="m0,-4l3.4641016151377544,1.9999999999999996l4.440892098500626e-16,3.9999999999999996l-3.4641016151377544,2.000000000000001l-3.464101615137754,-1.9999999999999982l-2.6645352591003757e-15,-3.999999999999999z" transform="translate(51.96152422706631,450)" fill="rgb(28, 161, 219)" stroke="white"/></g><g><path d="m0,-4l3.4641016151377544,1.9999999999999996l4.440892098500626e-16,3.9999999999999996l-3.4641016151377544,2.000000000000001l-3.464101615137754,-1.9999999999999982l-2.6645352591003757e-15,-3.999999999999999z" transform="translate(148.95636945092343,402)" fill="rgb(29, 161, 218)" stroke="white"/></g><g><path d="m0,-4l3.4641016151377544,1.9999999999999996l4.440892098500626e-16,3.9999999999999996l-3.4641016151377544,2.000000000000001l-3.464101615137754,-1.9999999999999982l-2.6645352591003757e-15,-3.999999999999999z" transform="translate(142.02816622064793,414)" fill="rgb(28, 161, 219)" stroke="white"/></g><g><path d="m0,-4l3.4641016151377544,1.9999999999999996l4.440892098500626e-16,3.9999999999999996l-3.4641016151377544,2.000000000000001l-3.464101615137754,-1.9999999999999982l-2.6645352591003757e-15,-3.999999999999999z" transform="translate(183.597385602301,366)" fill="rgb(29, 160, 218)" stroke="white"/></g><g><path d="m0,-4l3.4641016151377544,1.9999999999999996l4.440892098500626e-16,3.9999999999999996l-3.4641016151377544,2.000000000000001l-3.464101615137754,-1.9999999999999982l-2.6645352591003757e-15,-3.999999999999999z" transform="translate(142.02816622064793,378)" fill="rgb(29, 160, 218)" stroke="white"/></g><g><path d="m0,-4l3.4641016151377544,1.9999999999999996l4.440892098500626e-16,3.9999999999999996l-3.4641016151377544,2.000000000000001l-3.464101615137754,-1.9999999999999982l-2.6645352591003757e-15,-3.999999999999999z" transform="translate(20.784609690826528,444)" fill="rgb(28, 161, 219)" stroke="white"/></g><g><path d="m0,-4l3.4641016151377544,1.9999999999999996l4.440892098500626e-16,3.9999999999999996l-3.4641016151377544,2.000000000000001l-3.464101615137754,-1.9999999999999982l-2.6645352591003757e-15,-3.999999999999999z" transform="translate(55.42562584220407,456)" fill="rgb(28, 161, 219)" stroke="white"/></g><g><path d="m0,-4l3.4641016151377544,1.9999999999999996l4.440892098500626e-16,3.9999999999999996l-3.4641016151377544,2.000000000000001l-3.464101615137754,-1.9999999999999982l-2.6645352591003757e-15,-3.999999999999999z" transform="translate(17.32050807568877,438)" fill="rgb(28, 161, 219)" stroke="white"/></g><g><path d="m0,-4l3.4641016151377544,1.9999999999999996l4.440892098500626e-16,3.9999999999999996l-3.4641016151377544,2.000000000000001l-3.464101615137754,-1.9999999999999982l-2.6645352591003757e-15,-3.999999999999999z" transform="translate(90.06664199358161,420)" fill="rgb(28, 161, 219)" stroke="white"/></g><g><path d="m0,-4l3.4641016151377544,1.9999999999999996l4.440892098500626e-16,3.9999999999999996l-3.4641016151377544,2.000000000000001l-3.464101615137754,-1.9999999999999982l-2.6645352591003757e-15,-3.999999999999999z" transform="translate(488.43832773442335,186)" fill="rgb(28, 161, 219)" stroke="white"/></g><g><path d="m0,-4l3.4641016151377544,1.9999999999999996l4.440892098500626e-16,3.9999999999999996l-3.4641016151377544,2.000000000000001l-3.464101615137754,-1.9999999999999982l-2.6645352591003757e-15,-3.999999999999999z" transform="translate(27.712812921102035,480)" fill="rgb(33, 158, 215)" stroke="white"/></g><g><path d="m0,-4l3.4641016151377544,1.9999999999999996l4.440892098500626e-16,3.9999999999999996l-3.4641016151377544,2.000000000000001l-3.464101615137754,-1.9999999999999982l-2.6645352591003757e-15,-3.999999999999999z" transform="translate(41.569219381653056,468)" fill="rgb(30, 160, 217)" stroke="white"/></g><g><path d="m0,-4l3.4641016151377544,1.9999999999999996l4.440892098500626e-16,3.9999999999999996l-3.4641016151377544,2.000000000000001l-3.464101615137754,-1.9999999999999982l-2.6645352591003757e-15,-3.999999999999999z" transform="translate(259.8076211353316,294)" fill="rgb(28, 161, 219)" stroke="white"/></g><g><path d="m0,-4l3.4641016151377544,1.9999999999999996l4.440892098500626e-16,3.9999999999999996l-3.4641016151377544,2.000000000000001l-3.464101615137754,-1.9999999999999982l-2.6645352591003757e-15,-3.999999999999999z" transform="translate(86.60254037844386,426)" fill="rgb(28, 161, 219)" stroke="white"/></g><g><path d="m0,-4l3.4641016151377544,1.9999999999999996l4.440892098500626e-16,3.9999999999999996l-3.4641016151377544,2.000000000000001l-3.464101615137754,-1.9999999999999982l-2.6645352591003757e-15,-3.999999999999999z" transform="translate(41.569219381653056,456)" fill="rgb(29, 161, 218)" stroke="white"/></g><g><path d="m0,-4l3.4641016151377544,1.9999999999999996l4.440892098500626e-16,3.9999999999999996l-3.4641016151377544,2.000000000000001l-3.464101615137754,-1.9999999999999982l-2.6645352591003757e-15,-3.999999999999999z" transform="translate(86.60254037844386,438)" fill="rgb(28, 161, 219)" stroke="white"/></g><g><path d="m0,-4l3.4641016151377544,1.9999999999999996l4.440892098500626e-16,3.9999999999999996l-3.4641016151377544,2.000000000000001l-3.464101615137754,-1.9999999999999982l-2.6645352591003757e-15,-3.999999999999999z" transform="translate(79.67433714816835,438)" fill="rgb(29, 161, 218)" stroke="white"/></g><g><path d="m0,-4l3.4641016151377544,1.9999999999999996l4.440892098500626e-16,3.9999999999999996l-3.4641016151377544,2.000000000000001l-3.464101615137754,-1.9999999999999982l-2.6645352591003757e-15,-3.999999999999999z" transform="translate(93.53074360871936,426)" fill="rgb(29, 160, 218)" stroke="white"/></g><g><path d="m0,-4l3.4641016151377544,1.9999999999999996l4.440892098500626e-16,3.9999999999999996l-3.4641016151377544,2.000000000000001l-3.464101615137754,-1.9999999999999982l-2.6645352591003757e-15,-3.999999999999999z" transform="translate(45.033320996790806,390)" fill="rgb(28, 161, 219)" stroke="white"/></g><g><path d="m0,-4l3.4641016151377544,1.9999999999999996l4.440892098500626e-16,3.9999999999999996l-3.4641016151377544,2.000000000000001l-3.464101615137754,-1.9999999999999982l-2.6645352591003757e-15,-3.999999999999999z" transform="translate(31.17691453623979,426)" fill="rgb(28, 161, 219)" stroke="white"/></g><g><path d="m0,-4l3.4641016151377544,1.9999999999999996l4.440892098500626e-16,3.9999999999999996l-3.4641016151377544,2.000000000000001l-3.464101615137754,-1.9999999999999982l-2.6645352591003757e-15,-3.999999999999999z" transform="translate(27.712812921102035,456)" fill="rgb(29, 161, 218)" stroke="white"/></g><g><path d="m0,-4l3.4641016151377544,1.9999999999999996l4.440892098500626e-16,3.9999999999999996l-3.4641016151377544,2.000000000000001l-3.464101615137754,-1.9999999999999982l-2.6645352591003757e-15,-3.999999999999999z" transform="translate(13.856406460551018,444)" fill="rgb(28, 161, 219)" stroke="white"/></g><g><path d="m0,-4l3.4641016151377544,1.9999999999999996l4.440892098500626e-16,3.9999999999999996l-3.4641016151377544,2.000000000000001l-3.464101615137754,-1.9999999999999982l-2.6645352591003757e-15,-3.999999999999999z" transform="translate(27.712812921102035,468)" fill="rgb(29, 161, 218)" stroke="white"/></g><g><path d="m0,-4l3.4641016151377544,1.9999999999999996l4.440892098500626e-16,3.9999999999999996l-3.4641016151377544,2.000000000000001l-3.464101615137754,-1.9999999999999982l-2.6645352591003757e-15,-3.999999999999999z" transform="translate(17.32050807568877,498)" fill="rgb(29, 161, 218)" stroke="white"/></g><g><path d="m0,-4l3.4641016151377544,1.9999999999999996l4.440892098500626e-16,3.9999999999999996l-3.4641016151377544,2.000000000000001l-3.464101615137754,-1.9999999999999982l-2.6645352591003757e-15,-3.999999999999999z" transform="translate(0,468)" fill="rgb(28, 161, 219)" stroke="white"/></g><g><path d="m0,-4l3.4641016151377544,1.9999999999999996l4.440892098500626e-16,3.9999999999999996l-3.4641016151377544,2.000000000000001l-3.464101615137754,-1.9999999999999982l-2.6645352591003757e-15,-3.999999999999999z" transform="translate(10.392304845413264,498)" fill="rgb(35, 156, 212)" stroke="white"/></g><g><path d="m0,-4l3.4641016151377544,1.9999999999999996l4.440892098500626e-16,3.9999999999999996l-3.4641016151377544,2.000000000000001l-3.464101615137754,-1.9999999999999982l-2.6645352591003757e-15,-3.999999999999999z" transform="translate(0,312)" fill="rgb(28, 161, 219)" stroke="white"/></g><g><path d="m0,-4l3.4641016151377544,1.9999999999999996l4.440892098500626e-16,3.9999999999999996l-3.4641016151377544,2.000000000000001l-3.464101615137754,-1.9999999999999982l-2.6645352591003757e-15,-3.999999999999999z" transform="translate(10.392304845413264,462)" fill="rgb(29, 161, 218)" stroke="white"/></g><g><path d="m0,-4l3.4641016151377544,1.9999999999999996l4.440892098500626e-16,3.9999999999999996l-3.4641016151377544,2.000000000000001l-3.464101615137754,-1.9999999999999982l-2.6645352591003757e-15,-3.999999999999999z" transform="translate(3.4641016151377544,474)" fill="rgb(28, 161, 219)" stroke="white"/></g><g><path d="m0,-4l3.4641016151377544,1.9999999999999996l4.440892098500626e-16,3.9999999999999996l-3.4641016151377544,2.000000000000001l-3.464101615137754,-1.9999999999999982l-2.6645352591003757e-15,-3.999999999999999z" transform="translate(10.392304845413264,450)" fill="rgb(28, 161, 219)" stroke="white"/></g><g><path d="m0,-4l3.4641016151377544,1.9999999999999996l4.440892098500626e-16,3.9999999999999996l-3.4641016151377544,2.000000000000001l-3.464101615137754,-1.9999999999999982l-2.6645352591003757e-15,-3.999999999999999z" transform="translate(65.81793068761733,450)" fill="rgb(29, 160, 218)" stroke="white"/></g><g><path d="m0,-4l3.4641016151377544,1.9999999999999996l4.440892098500626e-16,3.9999999999999996l-3.4641016151377544,2.000000000000001l-3.464101615137754,-1.9999999999999982l-2.6645352591003757e-15,-3.999999999999999z" transform="translate(45.033320996790806,462)" fill="rgb(28, 161, 219)" stroke="white"/></g><g><path d="m0,-4l3.4641016151377544,1.9999999999999996l4.440892098500626e-16,3.9999999999999996l-3.4641016151377544,2.000000000000001l-3.464101615137754,-1.9999999999999982l-2.6645352591003757e-15,-3.999999999999999z" transform="translate(24.24871130596428,450)" fill="rgb(28, 161, 219)" stroke="white"/></g><g><path d="m0,-4l3.4641016151377544,1.9999999999999996l4.440892098500626e-16,3.9999999999999996l-3.4641016151377544,2.000000000000001l-3.464101615137754,-1.9999999999999982l-2.6645352591003757e-15,-3.999999999999999z" transform="translate(45.033320996790806,474)" fill="rgb(28, 161, 219)" stroke="white"/></g><g><path d="m0,-4l3.4641016151377544,1.9999999999999996l4.440892098500626e-16,3.9999999999999996l-3.4641016151377544,2.000000000000001l-3.464101615137754,-1.9999999999999982l-2.6645352591003757e-15,-3.999999999999999z" transform="translate(34.64101615137754,468)" fill="rgb(31, 159, 216)" stroke="white"/></g><g><path d="m0,-4l3.4641016151377544,1.9999999999999996l4.440892098500626e-16,3.9999999999999996l-3.4641016151377544,2.000000000000001l-3.464101615137754,-1.9999999999999982l-2.6645352591003757e-15,-3.999999999999999z" transform="translate(55.42562584220407,420)" fill="rgb(28, 161, 219)" stroke="white"/></g><g><path d="m0,-4l3.4641016151377544,1.9999999999999996l4.440892098500626e-16,3.9999999999999996l-3.4641016151377544,2.000000000000001l-3.464101615137754,-1.9999999999999982l-2.6645352591003757e-15,-3.999999999999999z" transform="translate(51.96152422706631,462)" fill="rgb(29, 161, 218)" stroke="white"/></g><g><path d="m0,-4l3.4641016151377544,1.9999999999999996l4.440892098500626e-16,3.9999999999999996l-3.4641016151377544,2.000000000000001l-3.464101615137754,-1.9999999999999982l-2.6645352591003757e-15,-3.999999999999999z" transform="translate(38.1051177665153,474)" fill="rgb(30, 160, 217)" stroke="white"/></g><g><path d="m0,-4l3.4641016151377544,1.9999999999999996l4.440892098500626e-16,3.9999999999999996l-3.4641016151377544,2.000000000000001l-3.464101615137754,-1.9999999999999982l-2.6645352591003757e-15,-3.999999999999999z" transform="translate(114.31535329954589,498)" fill="rgb(28, 161, 219)" stroke="white"/></g><g><path d="m0,-4l3.4641016151377544,1.9999999999999996l4.440892098500626e-16,3.9999999999999996l-3.4641016151377544,2.000000000000001l-3.464101615137754,-1.9999999999999982l-2.6645352591003757e-15,-3.999999999999999z" transform="translate(62.35382907247958,456)" fill="rgb(28, 161, 219)" stroke="white"/></g><g><path d="m0,-4l3.4641016151377544,1.9999999999999996l4.440892098500626e-16,3.9999999999999996l-3.4641016151377544,2.000000000000001l-3.464101615137754,-1.9999999999999982l-2.6645352591003757e-15,-3.999999999999999z" transform="translate(58.88972745734183,462)" fill="rgb(28, 161, 219)" stroke="white"/></g><g><path d="m0,-4l3.4641016151377544,1.9999999999999996l4.440892098500626e-16,3.9999999999999996l-3.4641016151377544,2.000000000000001l-3.464101615137754,-1.9999999999999982l-2.6645352591003757e-15,-3.999999999999999z" transform="translate(290.9845356715714,264)" fill="rgb(28, 161, 219)" stroke="white"/></g><g><path d="m0,-4l3.4641016151377544,1.9999999999999996l4.440892098500626e-16,3.9999999999999996l-3.4641016151377544,2.000000000000001l-3.464101615137754,-1.9999999999999982l-2.6645352591003757e-15,-3.999999999999999z" transform="translate(93.53074360871936,438)" fill="rgb(28, 161, 219)" stroke="white"/></g><g><path d="m0,-4l3.4641016151377544,1.9999999999999996l4.440892098500626e-16,3.9999999999999996l-3.4641016151377544,2.000000000000001l-3.464101615137754,-1.9999999999999982l-2.6645352591003757e-15,-3.999999999999999z" transform="translate(72.74613391789285,414)" fill="rgb(28, 161, 219)" stroke="white"/></g><g><path d="m0,-4l3.4641016151377544,1.9999999999999996l4.440892098500626e-16,3.9999999999999996l-3.4641016151377544,2.000000000000001l-3.464101615137754,-1.9999999999999982l-2.6645352591003757e-15,-3.999999999999999z" transform="translate(24.24871130596428,498)" fill="rgb(30, 159, 217)" stroke="white"/></g><g><path d="m0,-4l3.4641016151377544,1.9999999999999996l4.440892098500626e-16,3.9999999999999996l-3.4641016151377544,2.000000000000001l-3.464101615137754,-1.9999999999999982l-2.6645352591003757e-15,-3.999999999999999z" transform="translate(38.1051177665153,462)" fill="rgb(31, 159, 216)" stroke="white"/></g><g><path d="m0,-4l3.4641016151377544,1.9999999999999996l4.440892098500626e-16,3.9999999999999996l-3.4641016151377544,2.000000000000001l-3.464101615137754,-1.9999999999999982l-2.6645352591003757e-15,-3.999999999999999z" transform="translate(31.17691453623979,498)" fill="rgb(28, 161, 219)" stroke="white"/></g><g><path d="m0,-4l3.4641016151377544,1.9999999999999996l4.440892098500626e-16,3.9999999999999996l-3.4641016151377544,2.000000000000001l-3.464101615137754,-1.9999999999999982l-2.6645352591003757e-15,-3.999999999999999z" transform="translate(31.17691453623979,474)" fill="rgb(31, 159, 216)" stroke="white"/></g><g><path d="m0,-4l3.4641016151377544,1.9999999999999996l4.440892098500626e-16,3.9999999999999996l-3.4641016151377544,2.000000000000001l-3.464101615137754,-1.9999999999999982l-2.6645352591003757e-15,-3.999999999999999z" transform="translate(38.1051177665153,438)" fill="rgb(28, 161, 219)" stroke="white"/></g><g><path d="m0,-4l3.4641016151377544,1.9999999999999996l4.440892098500626e-16,3.9999999999999996l-3.4641016151377544,2.000000000000001l-3.464101615137754,-1.9999999999999982l-2.6645352591003757e-15,-3.999999999999999z" transform="translate(100.45894683899488,438)" fill="rgb(28, 161, 219)" stroke="white"/></g><g><path d="m0,-4l3.4641016151377544,1.9999999999999996l4.440892098500626e-16,3.9999999999999996l-3.4641016151377544,2.000000000000001l-3.464101615137754,-1.9999999999999982l-2.6645352591003757e-15,-3.999999999999999z" transform="translate(58.88972745734183,438)" fill="rgb(28, 161, 219)" stroke="white"/></g><g><path d="m0,-4l3.4641016151377544,1.9999999999999996l4.440892098500626e-16,3.9999999999999996l-3.4641016151377544,2.000000000000001l-3.464101615137754,-1.9999999999999982l-2.6645352591003757e-15,-3.999999999999999z" transform="translate(65.81793068761733,438)" fill="rgb(29, 160, 218)" stroke="white"/></g><g><path d="m0,-4l3.4641016151377544,1.9999999999999996l4.440892098500626e-16,3.9999999999999996l-3.4641016151377544,2.000000000000001l-3.464101615137754,-1.9999999999999982l-2.6645352591003757e-15,-3.999999999999999z" transform="translate(38.1051177665153,450)" fill="rgb(28, 161, 219)" stroke="white"/></g><g><path d="m0,-4l3.4641016151377544,1.9999999999999996l4.440892098500626e-16,3.9999999999999996l-3.4641016151377544,2.000000000000001l-3.464101615137754,-1.9999999999999982l-2.6645352591003757e-15,-3.999999999999999z" transform="translate(135.09996299037243,378)" fill="rgb(28, 161, 219)" stroke="white"/></g><g><path d="m0,-4l3.4641016151377544,1.9999999999999996l4.440892098500626e-16,3.9999999999999996l-3.4641016151377544,2.000000000000001l-3.464101615137754,-1.9999999999999982l-2.6645352591003757e-15,-3.999999999999999z" transform="translate(86.60254037844386,498)" fill="rgb(28, 161, 219)" stroke="white"/></g><g><path d="m0,-4l3.4641016151377544,1.9999999999999996l4.440892098500626e-16,3.9999999999999996l-3.4641016151377544,2.000000000000001l-3.464101615137754,-1.9999999999999982l-2.6645352591003757e-15,-3.999999999999999z" transform="translate(76.2102355330306,408)" fill="rgb(28, 161, 219)" stroke="white"/></g><g><path d="m0,-4l3.4641016151377544,1.9999999999999996l4.440892098500626e-16,3.9999999999999996l-3.4641016151377544,2.000000000000001l-3.464101615137754,-1.9999999999999982l-2.6645352591003757e-15,-3.999999999999999z" transform="translate(155.88457268119896,354)" fill="rgb(28, 161, 219)" stroke="white"/></g><g><path d="m0,-4l3.4641016151377544,1.9999999999999996l4.440892098500626e-16,3.9999999999999996l-3.4641016151377544,2.000000000000001l-3.464101615137754,-1.9999999999999982l-2.6645352591003757e-15,-3.999999999999999z" transform="translate(83.13843876330611,444)" fill="rgb(28, 161, 219)" stroke="white"/></g><g><path d="m0,-4l3.4641016151377544,1.9999999999999996l4.440892098500626e-16,3.9999999999999996l-3.4641016151377544,2.000000000000001l-3.464101615137754,-1.9999999999999982l-2.6645352591003757e-15,-3.999999999999999z" transform="translate(100.45894683899488,498)" fill="rgb(28, 161, 219)" stroke="white"/></g><g><path d="m0,-4l3.4641016151377544,1.9999999999999996l4.440892098500626e-16,3.9999999999999996l-3.4641016151377544,2.000000000000001l-3.464101615137754,-1.9999999999999982l-2.6645352591003757e-15,-3.999999999999999z" transform="translate(34.64101615137754,456)" fill="rgb(28, 161, 219)" stroke="white"/></g><g><path d="m0,-4l3.4641016151377544,1.9999999999999996l4.440892098500626e-16,3.9999999999999996l-3.4641016151377544,2.000000000000001l-3.464101615137754,-1.9999999999999982l-2.6645352591003757e-15,-3.999999999999999z" transform="translate(51.96152422706631,342)" fill="rgb(29, 161, 218)" stroke="white"/></g><g><path d="m0,-4l3.4641016151377544,1.9999999999999996l4.440892098500626e-16,3.9999999999999996l-3.4641016151377544,2.000000000000001l-3.464101615137754,-1.9999999999999982l-2.6645352591003757e-15,-3.999999999999999z" transform="translate(55.42562584220407,372)" fill="rgb(28, 161, 219)" stroke="white"/></g><g><path d="m0,-4l3.4641016151377544,1.9999999999999996l4.440892098500626e-16,3.9999999999999996l-3.4641016151377544,2.000000000000001l-3.464101615137754,-1.9999999999999982l-2.6645352591003757e-15,-3.999999999999999z" transform="translate(138.56406460551017,348)" fill="rgb(28, 161, 219)" stroke="white"/></g><g><path d="m0,-4l3.4641016151377544,1.9999999999999996l4.440892098500626e-16,3.9999999999999996l-3.4641016151377544,2.000000000000001l-3.464101615137754,-1.9999999999999982l-2.6645352591003757e-15,-3.999999999999999z" transform="translate(38.1051177665153,498)" fill="rgb(28, 161, 219)" stroke="white"/></g><g><path d="m0,-4l3.4641016151377544,1.9999999999999996l4.440892098500626e-16,3.9999999999999996l-3.4641016151377544,2.000000000000001l-3.464101615137754,-1.9999999999999982l-2.6645352591003757e-15,-3.999999999999999z" transform="translate(58.88972745734183,450)" fill="rgb(28, 161, 219)" stroke="white"/></g><g><path d="m0,-4l3.4641016151377544,1.9999999999999996l4.440892098500626e-16,3.9999999999999996l-3.4641016151377544,2.000000000000001l-3.464101615137754,-1.9999999999999982l-2.6645352591003757e-15,-3.999999999999999z" transform="translate(96.99484522385713,396)" fill="rgb(28, 161, 219)" stroke="white"/></g><g><path d="m0,-4l3.4641016151377544,1.9999999999999996l4.440892098500626e-16,3.9999999999999996l-3.4641016151377544,2.000000000000001l-3.464101615137754,-1.9999999999999982l-2.6645352591003757e-15,-3.999999999999999z" transform="translate(90.06664199358161,444)" fill="rgb(28, 161, 219)" stroke="white"/></g><g><path d="m0,-4l3.4641016151377544,1.9999999999999996l4.440892098500626e-16,3.9999999999999996l-3.4641016151377544,2.000000000000001l-3.464101615137754,-1.9999999999999982l-2.6645352591003757e-15,-3.999999999999999z" transform="translate(55.42562584220407,444)" fill="rgb(28, 161, 219)" stroke="white"/></g><g><path d="m0,-4l3.4641016151377544,1.9999999999999996l4.440892098500626e-16,3.9999999999999996l-3.4641016151377544,2.000000000000001l-3.464101615137754,-1.9999999999999982l-2.6645352591003757e-15,-3.999999999999999z" transform="translate(96.99484522385713,420)" fill="rgb(28, 161, 219)" stroke="white"/></g><g><path d="m0,-4l3.4641016151377544,1.9999999999999996l4.440892098500626e-16,3.9999999999999996l-3.4641016151377544,2.000000000000001l-3.464101615137754,-1.9999999999999982l-2.6645352591003757e-15,-3.999999999999999z" transform="translate(207.84609690826525,312)" fill="rgb(28, 161, 219)" stroke="white"/></g><g><path d="m0,-4l3.4641016151377544,1.9999999999999996l4.440892098500626e-16,3.9999999999999996l-3.4641016151377544,2.000000000000001l-3.464101615137754,-1.9999999999999982l-2.6645352591003757e-15,-3.999999999999999z" transform="translate(65.81793068761733,426)" fill="rgb(28, 161, 219)" stroke="white"/></g><g><path d="m0,-4l3.4641016151377544,1.9999999999999996l4.440892098500626e-16,3.9999999999999996l-3.4641016151377544,2.000000000000001l-3.464101615137754,-1.9999999999999982l-2.6645352591003757e-15,-3.999999999999999z" transform="translate(69.28203230275508,432)" fill="rgb(28, 161, 219)" stroke="white"/></g><g><path d="m0,-4l3.4641016151377544,1.9999999999999996l4.440892098500626e-16,3.9999999999999996l-3.4641016151377544,2.000000000000001l-3.464101615137754,-1.9999999999999982l-2.6645352591003757e-15,-3.999999999999999z" transform="translate(34.64101615137754,480)" fill="rgb(28, 161, 219)" stroke="white"/></g></g></g></svg>